<?xml version="1.0" standalone="no"?>
<!DOCTYPE svg PUBLIC "-//W3C//DTD SVG 20010904//EN"
 "http://www.w3.org/TR/2001/REC-SVG-20010904/DTD/svg10.dtd">
<svg version="1.0" xmlns="http://www.w3.org/2000/svg"
 width="800.000000pt" height="800.000000pt" viewBox="0 0 800.000000 800.000000"
 preserveAspectRatio="xMidYMid meet">

<g transform="translate(0.000000,800.000000) scale(0.100000,-0.100000)"
fill="#000000" stroke="none">
<path d="M2280 7479 c-228 -132 -426 -250 -439 -263 -32 -32 -38 -100 -14
-145 16 -28 70 -63 314 -203 161 -93 353 -204 424 -246 186 -110 152 -116 520
97 165 96 356 206 424 245 144 82 164 106 158 179 -3 38 -11 55 -33 77 -16 15
-214 134 -440 264 -369 211 -416 236 -455 236 -39 -1 -93 -29 -459 -241z"/>
<path d="M4721 7480 c-228 -131 -426 -250 -439 -264 -53 -53 -34 -163 35 -198
15 -8 111 -63 213 -123 611 -354 602 -350 650 -350 41 0 87 24 468 246 467
271 469 272 459 356 -3 33 -13 53 -33 73 -16 15 -214 134 -441 264 -366 210
-416 236 -455 236 -38 -1 -92 -29 -457 -240z"/>
<path d="M6335 7004 c-16 -9 -113 -65 -215 -124 -102 -58 -280 -161 -396 -228
-116 -67 -220 -132 -230 -143 -14 -16 -19 -36 -19 -80 0 -75 8 -83 195 -192
565 -329 690 -397 728 -397 32 0 88 28 303 152 145 83 336 193 424 243 183
105 210 132 202 202 -2 24 -11 53 -19 65 -9 13 -206 133 -439 268 -452 261
-470 269 -534 234z"/>
<path d="M5147 6313 c-14 -4 -776 -440 -843 -483 -12 -7 -29 -26 -38 -41 -32
-54 -13 -137 38 -169 11 -8 203 -119 426 -248 335 -194 412 -235 445 -236 35
-1 74 18 270 131 704 403 660 372 660 458 0 74 -13 85 -275 237 -618 357 -633
365 -683 351z"/>
<path d="M405 6096 c-16 -7 -41 -26 -55 -41 l-25 -27 0 -514 0 -514 30 -30
c17 -16 138 -92 270 -168 132 -76 317 -183 410 -238 156 -91 174 -99 222 -99
46 0 57 4 85 33 l33 32 3 508 c3 550 4 547 -51 582 -142 89 -836 481 -860 485
-18 3 -45 -1 -62 -9z"/>
<path d="M3498 5367 c-230 -133 -427 -252 -439 -264 -31 -30 -36 -108 -11
-148 18 -29 118 -90 696 -422 192 -110 218 -118 279 -87 17 9 175 100 352 202
176 102 355 205 399 230 96 55 119 87 113 155 -3 34 -11 56 -28 72 -13 13
-212 132 -442 264 -371 214 -422 241 -460 240 -36 0 -100 -34 -459 -242z"/>
<path d="M1587 5367 c-22 -20 -38 -46 -42 -67 -3 -19 -5 -252 -3 -517 3 -464
4 -483 23 -508 12 -16 191 -126 443 -271 381 -220 427 -244 468 -244 25 0 56
7 70 16 54 36 54 32 54 572 l0 499 -22 33 c-18 25 -125 91 -445 276 -379 218
-428 244 -467 244 -37 0 -51 -6 -79 -33z"/>
<path d="M5785 5156 c-318 -184 -425 -251 -442 -276 l-23 -33 0 -499 c0 -542
-1 -536 55 -572 15 -10 46 -18 70 -18 37 0 93 29 466 245 254 146 432 255 444
272 19 25 20 44 23 513 2 326 0 499 -8 524 -16 55 -61 88 -118 87 -43 0 -87
-23 -467 -243z"/>
<path d="M4960 4676 c-25 -13 -220 -125 -433 -248 -276 -159 -394 -233 -407
-254 -19 -28 -20 -51 -20 -529 0 -484 1 -501 20 -533 21 -34 72 -62 112 -62
31 0 0 -17 513 279 193 111 364 215 380 232 l30 29 3 501 c2 451 1 503 -14
535 -34 71 -109 91 -184 50z"/>
<path d="M1582 3956 l-37 -34 0 -514 c0 -498 1 -514 20 -541 16 -22 680 -417
837 -498 59 -30 111 -25 156 15 l37 34 0 520 0 520 -25 27 c-14 14 -74 54
-135 89 -60 34 -248 142 -416 239 -277 161 -310 177 -352 177 -40 0 -53 -5
-85 -34z"/>
<path d="M5791 3750 c-228 -131 -426 -250 -440 -265 l-26 -25 -3 -516 -3 -516
40 -39 c33 -34 45 -39 83 -39 47 0 26 -12 650 350 148 85 255 153 265 169 17
24 18 64 18 539 l0 514 -37 34 c-32 29 -45 34 -85 34 -44 0 -81 -20 -462 -240z"/>
<path d="M379 3267 c-59 -40 -60 -47 -57 -588 3 -478 3 -488 24 -516 25 -33
842 -509 890 -519 43 -8 99 18 124 58 19 32 20 49 20 533 0 472 -1 502 -19
531 -14 24 -117 87 -447 277 -466 269 -468 269 -535 224z"/>
<path d="M2822 3270 c-63 -39 -63 -38 -60 -585 3 -483 3 -494 24 -522 13 -17
145 -100 345 -216 469 -271 514 -297 546 -303 42 -8 99 19 123 58 19 32 20 49
20 531 0 424 -2 502 -15 527 -17 33 -36 45 -540 334 -366 211 -378 216 -443
176z"/>
<path d="M7010 3046 c-318 -183 -431 -252 -447 -277 l-23 -32 0 -501 c0 -485
1 -502 20 -534 25 -40 81 -66 124 -57 49 9 866 485 890 518 21 28 21 38 24
516 3 541 2 548 -57 588 -67 45 -69 44 -531 -221z"/>
<path d="M2831 1868 c-13 -7 -34 -26 -45 -41 -21 -28 -21 -36 -21 -537 0 -494
1 -509 20 -536 11 -14 77 -59 145 -99 69 -39 258 -148 420 -242 162 -93 307
-173 322 -177 40 -9 104 20 128 59 19 31 20 48 20 531 0 470 -1 501 -19 530
-13 21 -69 60 -192 131 -96 56 -284 165 -419 243 -258 151 -303 168 -359 138z"/>
<path d="M4955 1859 c-22 -12 -168 -96 -325 -187 -157 -91 -330 -191 -385
-223 -61 -35 -109 -69 -122 -89 l-23 -33 0 -500 c0 -483 1 -501 20 -532 23
-37 68 -59 115 -58 31 1 100 39 725 401 85 49 164 102 175 116 19 27 20 44 23
514 2 316 -1 499 -7 523 -24 80 -115 113 -196 68z"/>
</g>
</svg>
